<svg width="52" height="52" viewBox="0 0 52 52" fill="none" xmlns="http://www.w3.org/2000/svg">
<path d="M32.7319 40.7921C31.9762 40.7921 31.3204 40.2303 31.2224 39.461C31.1164 38.6263 31.7068 37.8638 32.5411 37.7575C37.355 37.1441 41.6659 35.8397 44.6794 34.0838C47.4355 32.4782 48.953 30.5906 48.953 28.7688C48.953 26.761 47.1772 25.1181 45.6871 24.093C44.994 23.6161 44.8187 22.6679 45.2955 21.9744C45.7724 21.2813 46.721 21.106 47.4141 21.5829C50.4141 23.6466 51.9999 26.1314 51.9999 28.7692C51.9999 31.7629 49.9992 34.511 46.2136 36.7165C42.8061 38.7017 38.2115 40.1069 32.9263 40.7802C32.8609 40.7881 32.7958 40.7921 32.7319 40.7921Z" fill="white"/>
<path d="M25.6287 38.6096L21.5662 34.5471C20.9711 33.952 20.0066 33.952 19.4115 34.5471C18.8168 35.1418 18.8168 36.1067 19.4115 36.7014L20.5985 37.8884C16.0473 37.4182 11.9126 36.3586 8.71097 34.8189C5.11145 33.088 3.04688 30.8825 3.04688 28.7688C3.04688 26.976 4.52509 25.1125 7.20895 23.5216C7.93298 23.0928 8.17181 22.1581 7.74295 21.4345C7.31369 20.7104 6.379 20.4716 5.65536 20.9005C0.98111 23.6712 0 26.7086 0 28.7688C0 32.1489 2.62476 35.2727 7.39066 37.565C11.0898 39.3436 15.8747 40.5349 21.0877 40.9959L19.4115 42.6721C18.8168 43.2668 18.8168 44.2317 19.4115 44.8268C19.7091 45.1239 20.0991 45.2727 20.489 45.2727C20.8786 45.2727 21.2686 45.1239 21.5662 44.8268L25.6287 40.7643C26.2234 40.1692 26.2234 39.2043 25.6287 38.6096Z" fill="white"/>
<path d="M15.9553 25.718V25.3514C15.9553 24.0585 15.1638 23.8077 14.1026 23.8077C13.4464 23.8077 13.2341 23.2289 13.2341 22.6501C13.2341 22.0709 13.4464 21.492 14.1026 21.492C14.8357 21.492 15.6078 21.3956 15.6078 19.8325C15.6078 18.7133 14.971 18.4432 14.1795 18.4432C13.2341 18.4432 12.7517 18.6749 12.7517 19.4275C12.7517 20.0833 12.4621 20.5272 11.3429 20.5272C9.95358 20.5272 9.78021 20.2376 9.78021 19.3112C9.78021 17.8064 10.8605 15.8573 14.1795 15.8573C16.6305 15.8573 18.4828 16.7448 18.4828 19.3501C18.4828 20.7585 17.9619 22.0709 16.9971 22.5148C18.1357 22.9393 18.9653 23.7883 18.9653 25.3514V25.718C18.9653 28.8827 16.7849 30.0792 14.0831 30.0792C10.7641 30.0792 9.4906 28.0531 9.4906 26.4321C9.4906 25.5637 9.85718 25.332 10.9184 25.332C12.1534 25.332 12.4621 25.6021 12.4621 26.3357C12.4621 27.2426 13.3115 27.4549 14.1795 27.4549C15.4919 27.4549 15.9553 26.9724 15.9553 25.718Z" fill="white"/>
<path d="M30.6786 25.3514V25.5252C30.6786 28.8442 28.6136 30.0792 25.9507 30.0792C23.2879 30.0792 21.2035 28.8442 21.2035 25.5252V20.4113C21.2035 17.0923 23.3454 15.8573 26.1245 15.8573C29.3856 15.8573 30.6786 17.8834 30.6786 19.485C30.6786 20.4113 30.2346 20.7006 29.2698 20.7006C28.4402 20.7006 27.7067 20.4883 27.7067 19.6008C27.7067 18.8677 26.935 18.4817 26.0281 18.4817C24.8895 18.4817 24.2139 19.0799 24.2139 20.4113V22.1478C24.8316 21.4726 25.7 21.2988 26.6264 21.2988C28.8258 21.2988 30.6786 22.2637 30.6786 25.3514ZM24.2139 25.7374C24.2139 27.0688 24.8701 27.6477 25.9507 27.6477C27.0314 27.6477 27.6682 27.0688 27.6682 25.7374V25.5637C27.6682 24.1549 27.0314 23.6145 25.9313 23.6145C24.8895 23.6145 24.2139 24.1164 24.2139 25.3899V25.7374Z" fill="white"/>
<path d="M33.0133 25.5252V20.4113C33.0133 17.0923 35.0779 15.8573 37.7411 15.8573C40.404 15.8573 42.488 17.0923 42.488 20.4113V25.5252C42.488 28.8442 40.404 30.0792 37.7411 30.0792C35.0779 30.0792 33.0133 28.8442 33.0133 25.5252ZM39.4776 20.4113C39.4776 19.0799 38.8218 18.4817 37.7411 18.4817C36.6604 18.4817 36.0237 19.0799 36.0237 20.4113V25.5252C36.0237 26.8566 36.6604 27.4549 37.7411 27.4549C38.8218 27.4549 39.4776 26.8566 39.4776 25.5252V20.4113Z" fill="white"/>
<path d="M46.1449 15.8438C43.6245 15.8438 41.5746 13.7935 41.5746 11.2735C41.5746 8.75348 43.6245 6.70319 46.1449 6.70319C48.6649 6.70319 50.7152 8.75348 50.7152 11.2735C50.7152 13.7935 48.6649 15.8438 46.1449 15.8438ZM46.1449 9.75006C45.3046 9.75006 44.6215 10.4336 44.6215 11.2735C44.6215 12.1138 45.3046 12.7969 46.1449 12.7969C46.9848 12.7969 47.6683 12.1138 47.6683 11.2735C47.6683 10.4336 46.9848 9.75006 46.1449 9.75006Z" fill="white"/>
</svg>
