<svg width="44" height="44" viewBox="0 0 44 44" fill="none" xmlns="http://www.w3.org/2000/svg">
<path d="M16.8618 22.4391L24.2622 29.8191C24.5047 30.0607 24.8973 30.0603 25.1393 29.8178C25.3812 29.5753 25.3806 29.1826 25.1381 28.9407L18.1781 22L25.1383 15.0593C25.3808 14.8174 25.3814 14.4248 25.1396 14.1823C25.0182 14.0608 24.8593 14 24.7003 14C24.5417 14 24.3834 14.0604 24.2623 14.1811L16.8618 21.5609C16.745 21.6771 16.6794 21.8352 16.6794 22C16.6794 22.1647 16.7452 22.3227 16.8618 22.4391Z" fill="white"/>
<rect x="43.5" y="43.5" width="43" height="43" rx="21.5" transform="rotate(-180 43.5 43.5)" stroke="white"/>
</svg>
