<svg width="14" height="14" viewBox="0 0 14 14" fill="none" xmlns="http://www.w3.org/2000/svg">
<path d="M7.00005 0C4.42689 0 2.33337 2.09352 2.33337 4.66668C2.33337 5.43914 2.5265 6.20504 2.89365 6.88436L6.74485 13.8496C6.79612 13.9425 6.89382 14 7.00005 14C7.10628 14 7.20398 13.9425 7.25525 13.8496L11.1079 6.88207C11.4736 6.20504 11.6667 5.43911 11.6667 4.66665C11.6667 2.09352 9.57321 0 7.00005 0ZM7.00005 7C5.71347 7 4.66673 5.95325 4.66673 4.66668C4.66673 3.3801 5.71347 2.33335 7.00005 2.33335C8.28663 2.33335 9.33337 3.3801 9.33337 4.66668C9.33337 5.95325 8.28663 7 7.00005 7Z" fill="white"/>
</svg>
